<svg id="Layer_1" enable-background="new 0 0 512.004 512.004" height="512" viewBox="0 0 512.004 512.004" width="512" xmlns="http://www.w3.org/2000/svg"><g><g><path d="m511.437 255.181-48.106-137.063c-1.65-4.702-6.51-7.47-11.397-6.494l-50.104 10.023-88.066-26.197c-12.711-3.782-26.64-6.031-42.346 3.038l-15.695 9.062-15.696-9.062c-15.707-9.069-29.636-6.819-42.346-3.037l-87.753 26.105-45.561-12.018c-4.954-1.306-10.098 1.344-11.907 6.139l-51.815 137.334c-1.729 4.582.115 9.742 4.356 12.19l43.077 24.87c-3.056 7.107-3.642 14.997-1.6 22.618 2.401 8.962 8.127 16.44 16.122 21.056 6.336 3.658 13.363 5.079 20.155 4.514.281 11.695 6.466 22.98 17.316 29.245 10.074 5.817 21.885 5.985 31.739 1.495 2.815 6.819 7.813 12.797 14.682 16.762 7.995 4.616 17.334 5.836 26.297 3.434 2.634-.706 5.141-1.699 7.483-2.953 2.977 6.413 7.825 11.741 14.05 15.334 5.446 3.144 11.397 4.638 17.274 4.638 8.319-.001 16.484-3 22.848-8.544l30.4 17.551c5.444 3.143 11.396 4.637 17.272 4.636 11.99 0 23.667-6.217 30.08-17.325 2.654-4.598 4.133-9.557 4.528-14.528 7.237 3.248 15.32 3.899 23.121 1.81 8.962-2.402 16.44-8.128 21.056-16.124 3.181-5.51 4.672-11.539 4.636-17.484 13.349 1.578 27.009-4.723 34.146-17.086 2.733-4.734 4.22-9.854 4.561-14.974 15.429 5.454 33.088-.684 41.562-15.359 3.676-6.367 5.096-13.428 4.51-20.251l55.192-20.68c5.097-1.909 7.731-7.542 5.929-12.675zm-438.836 61.245c-3.369-1.945-5.785-5.11-6.804-8.913-1.02-3.802-.509-7.751 1.437-11.121l13.962-24.184c1.945-3.369 5.11-5.786 8.913-6.804 3.802-1.019 7.752-.508 11.12 1.437 6.992 4.037 9.405 13.013 5.38 20.012l-13.983 24.218c-.001.002-.002.003-.003.005-4.048 6.987-13.029 9.387-20.022 5.35zm57.504 28.39c-4.044 7.001-13.027 9.41-20.033 5.368-7.003-4.043-9.41-13.03-5.369-20.032l5.229-9.056c.001-.002.002-.003.003-.004l13.994-24.238c.001-.002.003-.004.004-.006l.005-.01c.001-.001.001-.001.002-.002l12.345-21.384c1.945-3.369 5.11-5.785 8.912-6.804 3.804-1.019 7.751-.508 11.121 1.438 3.369 1.945 5.786 5.11 6.805 8.912s.509 7.751-1.437 11.12l-3.681 6.374c-.007.011-.013.022-.02.033-.001.001-.001.003-.002.004l-24.177 41.877c0 .001-.001.001-.001.002l-.002.002c-.001.003-.004.007-.005.01zm46.421 18.258c-1.945 3.368-5.109 5.784-8.912 6.803-3.804 1.019-7.753.508-11.121-1.437-6.995-4.039-9.405-13.012-5.379-20.012l.01-.017c.001-.001.001-.002.002-.002.002-.003.003-.007.005-.011l24.17-41.865c.002-.003.004-.005.005-.008 4.044-7.003 13.03-9.411 20.033-5.367 3.369 1.945 5.785 5.11 6.805 8.912 1.019 3.802.509 7.751-1.437 11.12l-5.107 8.846c-.001.001-.002.003-.003.004l-13.961 24.181c0 .001-.001.002-.002.003-.006.01-.012.02-.018.03zm27.798 21.182c-3.369-1.945-5.786-5.11-6.805-8.912s-.509-7.751 1.437-11.121l13.963-24.184c4.044-7.002 13.026-9.411 20.033-5.368 7.002 4.043 9.41 13.03 5.368 20.033l-13.963 24.185c-4.043 7.003-13.03 9.411-20.033 5.367zm90.554 8.278c-4.044 7.004-13.033 9.409-20.033 5.368l-28.778-16.615 9.573-16.582c1.771-3.068 3.016-6.298 3.768-9.584l30.104 17.381c.001 0 .001.001.002.001s.001 0 .002.001l.028.016c6.976 4.053 9.371 13.023 5.334 20.014zm148.085-122.6c-2.639-3.34-5.939-6.246-9.844-8.5-3.656-2.111-16.948-10.099-40.633-24.421-4.726-2.858-10.874-1.344-13.732 3.383-2.857 4.726-1.343 10.874 3.383 13.731 23.803 14.393 37.208 22.449 40.982 24.628 7.003 4.043 9.411 13.03 5.368 20.033-4.044 7.004-13.033 9.411-20.033 5.369l-21.425-12.371c-.006-.003-.013-.007-.019-.011l-.004-.002-79.582-45.946c-4.784-2.763-10.899-1.123-13.66 3.66-2.762 4.783-1.123 10.899 3.66 13.66l79.574 45.942c.001.001.003.002.004.003.002.001.002.001.004.002l.021.012c6.979 4.051 9.373 13.024 5.337 20.016-4.044 7.003-13.028 9.411-20.032 5.368l-14.082-8.13c-.009-.005-.017-.01-.025-.015l-.003-.001-69.864-40.336c-4.785-2.763-10.899-1.123-13.66 3.66-2.762 4.783-1.123 10.899 3.66 13.66l69.858 40.332c.001.001.002.001.003.002 6.999 4.044 9.404 13.029 5.363 20.031-1.945 3.369-5.11 5.785-8.912 6.804-3.801 1.019-7.752.509-11.121-1.436l-23.997-13.855c-.012-.007-.022-.013-.035-.021l-.002-.001-44.07-25.444c-2.933-4.981-7.142-9.297-12.495-12.388-6.385-3.686-13.462-5.105-20.305-4.505-.086-2.654-.479-5.32-1.185-7.954-2.401-8.962-8.128-16.44-16.123-21.056-6.87-3.966-14.552-5.306-21.862-4.333-.187-1.901-.531-3.8-1.036-5.684-2.401-8.962-8.128-16.44-16.124-21.057-14.665-8.468-33.01-4.964-43.648 7.452-2.855-4.268-6.702-7.96-11.439-10.695-7.995-4.616-17.336-5.837-26.297-3.435-8.963 2.401-16.44 8.127-21.057 16.123l-6.014 10.417-35.507-20.499 45.634-120.949 39.551 10.432c1.776.468 3.644.438 5.402-.084l90.442-26.905c10.523-3.13 17.885-3.868 26.643 1.188l5.695 3.289-35.032 20.226c-16.674 9.627-22.407 31.025-12.78 47.7 9.313 16.131 29.574 21.759 47.128 13.086 9.438-4.662 23.166-10.834 33.513-14.774 7.554 4.551 24.495 14.819 36.59 22.149 4.727 2.864 10.875 1.354 13.735-3.369 2.862-4.723 1.354-10.873-3.368-13.735-11.63-7.049-21.793-13.207-29.061-17.602-3.642-2.202-6.559-3.963-8.57-5.174-4.429-2.663-5.48-3.296-8.293-3.296-1.121 0-2.233.188-3.292.557-11.828 4.123-29.084 11.864-40.111 17.311-7.974 3.936-16.979 1.722-20.95-5.155-4.113-7.125-1.664-16.267 5.46-20.38l70.729-40.834c8.758-5.057 16.122-4.318 26.643-1.188l90.443 26.905c1.563.465 3.215.541 4.813.221l44.019-8.806 41.986 119.624z"/><path d="m348.815 212.262h-.008c-5.522 0-9.996 4.477-9.996 10s4.481 10 10.004 10 10-4.477 10-10-4.478-10-10-10z"/></g></g></svg>